<svg id="Layer_1" data-name="Layer 1" xmlns="http://www.w3.org/2000/svg" viewBox="0 0 512 512"><path d="M276.08,236.91h36.77q88.7,0,177.38,0c15.49,0,24.93,11.84,20.71,25.36-2.56,8.21-9.26,13.32-18.52,13.63-7.64.25-15.29.09-22.94.09H276.08V484.7a92.15,92.15,0,0,1-.19,9.7,19.46,19.46,0,0,1-38.75,0,86.43,86.43,0,0,1-.17-8.82V276H226.22q-101.49,0-203,0c-16,0-25.66-12.08-21-25.81,2.88-8.54,9.91-13.22,20.62-13.24q63.1-.1,126.2,0H237V226.38q0-101.5,0-203C237,7.2,248.74-2.42,262.58,2.06,271.22,4.85,276,11.87,276,22.51c.09,30,0,60,0,90V236.91Z"/></svg>