<svg id="Layer_1" data-name="Layer 1" xmlns="http://www.w3.org/2000/svg" viewBox="0 0 512 512"><path d="M240,0h32c8.72,1.14,17.48,2,26.14,3.46,48.09,8.22,90.63,28.32,127.06,60.74,44.55,39.63,72.4,88.86,82.87,147.69,1.66,9.31,2.64,18.74,3.93,28.11v32a29.21,29.21,0,0,0-.83,3.86c-3,39.49-14.34,76.47-35,110.25-40.64,66.57-99.32,107.51-176.13,122-9.28,1.75-18.72,2.63-28.08,3.92H240c-6.25-.77-12.51-1.44-18.73-2.33-50.76-7.29-95.65-27.55-134.07-61.56C42.53,408.57,14.66,359.37,4,300.6c-1.72-9.46-2.68-19.06-4-28.6V240c1.12-8.55,2-17.16,3.4-25.66,9-53.25,32.42-99.33,70.35-137.77C112,37.75,158.12,13.39,211.91,3.93,221.22,2.3,230.63,1.29,240,0Zm16.09,32C132.78,31.93,32.3,132.22,32,255.65S132.4,479.91,255.91,480C379.2,480.08,479.68,379.78,480,256.33S379.65,32.08,256.09,32Z"/><path d="M272,212.94c0,30,.05,59.94,0,89.91,0,12.44-11.31,20.6-22,15.89-6.76-3-10-8.39-10-15.85q.08-36.47,0-72.93,0-53.19,0-106.39c0-7.8,3.88-13.47,10.57-15.9,6.33-2.3,13.69-.73,17.43,4.92a23.35,23.35,0,0,1,3.81,11.94C272.14,154,272,183.47,272,212.94Z"/><path d="M277.21,384.33a21.21,21.21,0,1,1-20.88-21.54A21,21,0,0,1,277.21,384.33Z"/></svg>