<svg id="Layer_1" data-name="Layer 1" xmlns="http://www.w3.org/2000/svg" viewBox="0 0 512 512"><path d="M0,305c4.16-9.29,11.57-12.08,21.36-11.87,19.32.41,38.66.12,58,.12h5.9c0-3.84-.08-7.13,0-10.41.54-17.81.77-35.63,1.86-53.4.43-6.88,2.59-13.72,4.49-20.43.89-3.16.18-4.71-2.33-6.55-20.12-14.82-40.11-29.82-60.22-44.65-5.43-4-8.37-9.1-7.54-15.81,1.55-12.45,15.35-18.07,25.85-10.42,16.42,12,32.66,24.19,49,36.31l9.91,7.33a23.34,23.34,0,0,0,1.87-2.24A141.6,141.6,0,0,1,147.93,132c2.85-1.93,3.39-3.78,2.75-7A68.7,68.7,0,0,1,198.24,45.8c3.95-1.2,5.16-2.88,4.95-6.87-.35-6.65-.16-13.33-.08-20,.13-10.11,7-17.17,16.35-17,9.06.15,15.55,7.24,15.62,17.17.06,7.64,0,15.27,0,23.6h42.8c0-7.93,0-15.36,0-22.8,0-10.79,6.31-17.91,15.79-18,9.65-.06,16.15,7.23,16.2,18.22,0,8,0,16,0,22.55C319.45,48.13,329,52,336.73,58.28c21.14,17.16,29.08,39.85,24.61,66.77-.43,2.55-.84,4.55,1.92,6.41a142.47,142.47,0,0,1,41.15,42.34,14.93,14.93,0,0,0,1.33,1.44l23.95-17.78c11.77-8.75,23.47-17.57,35.32-26.21,6.12-4.45,13.35-4.36,19.09-.19,5.37,3.91,8.2,10.94,5.7,17.25a23.65,23.65,0,0,1-7.37,9.63c-19.61,14.94-39.45,29.58-59.32,44.17-2.83,2.07-3.68,3.79-2.56,7.33,4.57,14.4,6.2,29.28,6.2,44.35v39.43h5.89c19.16,0,38.33.34,57.48-.14,10-.25,17.54,2.49,21.88,11.89v8c-3.57,9-10.15,12.59-19.88,12.38-19.81-.42-39.63-.12-59.44-.12h-5.93v5.94c0,11.66,0,23.32,0,35-.06,14.55-1.69,28.93-6.15,42.81-1.23,3.86-.15,5.6,2.76,7.73,19.59,14.38,39.15,28.8,58.49,43.51a25.46,25.46,0,0,1,7.9,9.85c2.67,6.34-.26,13.65-5.83,17.63-5.72,4.09-12.84,4.09-19.07-.46-12-8.73-23.8-17.65-35.7-26.48-7.82-5.81-15.65-11.61-23.41-17.36a12.7,12.7,0,0,0-1.1,1.11c-.65,1-1.26,2-1.91,2.92-20.79,30.57-49,50.82-84.76,60.13-7.84,2-16,3-24,4.46H218a34.77,34.77,0,0,0-3.84-.86q-55.47-6.33-92.63-48c-5.48-6.14-10.21-13-15.39-19.61-1.52,1.09-3,2.14-4.47,3.22C83.9,460,66.26,473.37,48.24,486.22a23.57,23.57,0,0,1-12.82,4c-6.64,0-11.81-5.16-13.5-11.45-1.8-6.74.41-12.91,6.56-17.5,19.88-14.82,39.76-29.65,59.77-44.3,3.24-2.37,4.37-4.36,3-8.52-2-6.31-3.85-12.89-4.2-19.44-1-18.93-1.3-37.91-1.84-56.86-.06-2.12,0-4.25,0-7H79.34c-19.82,0-39.64-.3-59.44.12C10.16,325.56,3.59,322,0,313Zm394.13,1.4h.62c0-18.33.15-36.66,0-55-.61-63.07-48.88-111.79-111.67-112.63-19.16-.25-38.32-.16-57.48.09a102.33,102.33,0,0,0-54.76,16.44c-35.2,22.6-53.13,55.15-53.49,97-.32,37.82-.16,75.64,0,113.46a145.85,145.85,0,0,0,1.74,21.38c7.23,47.34,49,87.67,96.45,91.72,20.85,1.78,41.93,1.08,62.9,1.07a151.84,151.84,0,0,0,24.84-1.95c48.32-8,87.94-51.24,90.64-100.13C395.22,354.06,394.13,330.19,394.13,306.37ZM330.4,113.21a4.22,4.22,0,0,0,.26-1.27C331,92.82,315.16,75.31,296,75c-26.64-.51-53.31-.56-80,0-14.76.33-25.24,8.54-31.47,21.84a30.59,30.59,0,0,0-3.05,16.53C231.25,103.41,280.46,103.6,330.4,113.21Z"/><path d="M272,309.33c0,26.49,0,53,0,79.49,0,7.49-4.33,13.44-11,15.65a15.25,15.25,0,0,1-17.69-5.78,19,19,0,0,1-3.17-9.7q-.28-79.74-.1-159.48a15.92,15.92,0,0,1,16.11-16.25c8.87.11,15.79,7.18,15.82,16.58C272.05,256.34,272,282.83,272,309.33Z"/></svg>