<svg id="Layer_1" data-name="Layer 1" xmlns="http://www.w3.org/2000/svg" viewBox="0 0 512 512"><path d="M0,272V240c1.12-8.55,2-17.16,3.4-25.66,9-53.25,32.42-99.33,70.35-137.77C112,37.75,158.12,13.39,211.91,3.93,221.22,2.3,230.63,1.29,240,0h32c8.72,1.14,17.48,2,26.14,3.46,48.09,8.22,90.63,28.32,127.06,60.74,44.55,39.63,72.4,88.86,82.87,147.69,1.66,9.31,2.64,18.74,3.93,28.11v32a29.21,29.21,0,0,0-.83,3.86c-3,39.49-14.34,76.47-35,110.25-40.64,66.57-99.32,107.51-176.13,122-9.28,1.75-18.72,2.63-28.08,3.92H240c-6.25-.77-12.51-1.44-18.73-2.33-50.76-7.29-95.65-27.55-134.07-61.56C42.53,408.57,14.66,359.37,4,300.6,2.27,291.14,1.31,281.54,0,272ZM256,480c123.34,0,223.77-100.4,224-223.8S379.47,32,256,32C132.61,32,32.19,132.39,32,255.78S132.57,480,256,480Z"/><path d="M232.13,303.74c2.1-2.63,3.2-4.34,4.61-5.74q60.38-60.46,120.8-120.89c3.8-3.81,7.91-6.51,13.55-6.32,6.24.2,10.87,3.06,13.71,8.47,2.95,5.62,2.51,11.29-1.07,16.55a32.23,32.23,0,0,1-4,4.44q-66.94,67-133.92,133.92c-9.74,9.75-17.81,9.76-27.5.06-21.8-21.78-43.66-43.5-65.28-65.45a22.85,22.85,0,0,1-5.85-10.08c-1.71-7.22,2-13.83,8.4-17s13.4-2,19.15,3.71q26.57,26.43,53,53C229,299.7,230.06,301.22,232.13,303.74Z"/></svg>