<svg id="Layer_1" data-name="Layer 1" xmlns="http://www.w3.org/2000/svg" viewBox="0 0 512 512"><path d="M21.92,512c-1.47-.65-2.93-1.34-4.42-2A26.25,26.25,0,0,1,7.2,469c1.59-1.92,3.4-3.65,5.17-5.41Q113.46,362.41,214.59,261.33c1.5-1.5,3.52-2.48,5.29-3.71,0-.81.08-1.62.11-2.43-1.8-1.19-3.86-2.13-5.35-3.62q-102-101.94-204-203.94C3.43,40.46-.45,32.32,1.68,22.05A26.18,26.18,0,0,1,44.94,7.63c1.5,1.31,2.88,2.77,4.29,4.18q101.45,101.46,202.86,203c1.39,1.39,2.23,3.31,3.33,5l2.36,0c1.1-1.66,2-3.56,3.34-4.95Q363,112.72,465,10.71c8.35-8.37,17.75-12.12,29.33-8.36C503.89,5.44,508.9,12.82,512,21.84v11c-2.62,7.78-8,13.49-13.68,19.16q-100.1,99.93-200.07,200c-1.38,1.38-3.28,2.25-4.93,3.36,0,.76,0,1.51,0,2.27a31.49,31.49,0,0,1,4.92,3.38Q398.49,361.1,498.67,461.28c5.57,5.55,10.79,11.18,13.33,18.8v11c-3.25,10.72-10.39,17.56-21,21h-10c-7.57-2.22-13.26-7.06-18.73-12.55Q361.76,398.67,261.06,298c-1.37-1.37-2.11-3.37-3.81-6.17-2.69,3.31-3.81,5-5.2,6.37Q151.58,398.75,51.11,499.3C45.51,504.92,39.74,510,31.9,512Z"/></svg>