<svg id="Layer_1" data-name="Layer 1" xmlns="http://www.w3.org/2000/svg" viewBox="0 0 512 512"><path d="M262,0a88.06,88.06,0,0,1,8.32,3.09c12.75,6.16,19.88,16.26,20.78,30.52.16,2.49.1,5,.1,7.49V395.64c2.18-2.08,3.45-3.24,4.67-4.46q47.89-47.88,95.79-95.75c14-14,33.83-15.2,48.34-3.27a35.17,35.17,0,0,1,4.39,50c-1.73,2-3.64,3.9-5.53,5.78Q368,418.81,297.22,489.74C287.09,500,276.52,509,262,512H250c-14.95-3.35-25.81-12.81-36.28-23.35Q142.57,417,71,345.81c-12.14-12.15-15.18-27.34-8.47-41.51,10-21.09,37.27-26.95,54.82-11.58,5.75,5,11,10.68,16.4,16.1q41,41,82,82A33,33,0,0,1,219,395.3l1.84-.87v-5.5q0-175.67,0-351.32c0-19.34,9.32-31.5,28-36.82A4.74,4.74,0,0,0,250,0Z"/></svg>