<svg id="Layer_1" data-name="Layer 1" xmlns="http://www.w3.org/2000/svg" viewBox="0 0 512 512"><path d="M0,87c.81-3.36,1.56-6.73,2.45-10.07C11.33,43.67,40.75,21.27,76,21.21q77.23-.15,154.47,0,81.48,0,163,0c31.73.05,59,18.3,70.48,46.83a74.36,74.36,0,0,1-25.09,87.86l-4.61,3.39c6.45,6.22,13.22,11.89,18.87,18.5,4,4.72,7,10.54,9.73,16.18,3,6.08.66,12.31-4.85,14.81s-11.51.18-14.4-6c-8-17.23-21.27-27.77-39.94-31.39a45.71,45.71,0,0,0-8.44-.67q-160.21,0-320.43,0c-27.72,0-50.17,20.54-53.12,48.39-2.8,26.45,15.43,51.28,42,56.92a52.87,52.87,0,0,0,10.87,1.15q62.73.11,125.47.05c8.26,0,13,3.8,13.24,10.35a10,10,0,0,1-8.47,10.7,34.73,34.73,0,0,1-6.46.41q-61.23,0-122.47,0c-29.27,0-51.68,20.64-54.28,49.89-2.37,26.69,17.32,51.27,45,56a69.31,69.31,0,0,0,11.45.61q49.25.06,98.48,0c1.34,0,2.67,0,4,0,6.87.33,11.45,4.58,11.51,10.67s-4.37,10.62-11.35,10.72c-14,.2-28,.13-42,.06-23.49-.1-47,.7-70.45-.68C34.25,424,6.57,397.69,1,364.22A24.93,24.93,0,0,0,0,361V343a10.85,10.85,0,0,0,.86-2.25c3.33-21.42,14.36-38,31.87-50.43,1-.73,2-1.49,3.36-2.45-1.73-1.2-3.08-2.11-4.4-3.07-14.55-10.51-24.4-24.33-29.14-41.69C1.55,239.45.84,235.71,0,232V215a10.85,10.85,0,0,0,.86-2.25c3.33-21.42,14.36-38,31.87-50.43,1-.73,2-1.49,3.36-2.45-1.73-1.2-3.08-2.11-4.4-3.07-14.55-10.51-24.4-24.33-29.14-41.69C1.55,111.45.84,107.71,0,104ZM234.86,42.67q-28.5,0-57,0c-35.32,0-70.65-.39-106,.31-28.39.56-51.07,25.18-50.62,53.41.47,29.19,24.18,52.8,53,52.8h320.4c37.15,0,63-37.23,49.87-72-8.14-21.62-27.47-34.49-52.24-34.52Q313.59,42.58,234.86,42.67Z"/><path d="M363,512c-9.76-2-19.68-3.34-29.24-6C282.19,491.6,242,444.12,235.89,391c-8.36-73.09,37.14-137.14,109-153.38,75.32-17,153.42,36.23,165.18,112.64.6,3.93,1.31,7.85,2,11.77v23a21.89,21.89,0,0,0-.87,3.29A138.2,138.2,0,0,1,412.7,506c-9.35,2.73-19.12,4-28.7,6Zm10.51-21.35c64.73-.24,117.37-53,117.22-117.55-.16-64.81-53.19-117.41-118.09-117.13-64.53.29-116.95,53.31-116.63,118C256.32,438.33,309.25,490.89,373.51,490.65Z"/><path d="M203,192a32,32,0,0,1-.34,64,32,32,0,1,1,.34-64Zm10.21,31.95a10.76,10.76,0,0,0-10.29-10.67A10.91,10.91,0,0,0,192,224a10.69,10.69,0,0,0,10.87,10.58A10.48,10.48,0,0,0,213.17,223.94Z"/><path d="M95.88,192A32,32,0,1,1,64,224.2,32.06,32.06,0,0,1,95.88,192ZM96,213.26A10.9,10.9,0,0,0,85.34,224.2a10.66,10.66,0,0,0,21.31,0A10.9,10.9,0,0,0,96,213.26Z"/><path d="M96.28,320A32,32,0,1,1,64,351.8,32.06,32.06,0,0,1,96.28,320Zm-.51,21.28a10.89,10.89,0,0,0-10.42,11.16,10.66,10.66,0,0,0,21.3-.45A10.89,10.89,0,0,0,95.77,341.26Z"/><path d="M170.79,352.06c0-17.55,14.46-32.36,31.39-32.07,6.18.1,10.67,4.17,11,9.95.32,6.05-3.24,10.65-9.61,11.07-9.31.61-13.76,9.13-10.38,15.65,2,3.94,5.5,5.44,9.69,6.06,7.32,1.07,11,5.52,10.23,12-.69,6-5.75,9.58-12.7,9.11A31.86,31.86,0,0,1,170.79,352.06Z"/><path d="M170.79,95.74A31.85,31.85,0,0,1,203,64a32,32,0,0,1-.43,64A31.87,31.87,0,0,1,170.79,95.74Zm42.38.11A10.79,10.79,0,0,0,202.8,85.26,10.93,10.93,0,0,0,192,96.05a10.73,10.73,0,0,0,10.46,10.51A10.54,10.54,0,0,0,213.17,95.85Z"/><path d="M96.22,64A32,32,0,1,1,64,95.86,32.06,32.06,0,0,1,96.22,64Zm10.43,32.4a10.66,10.66,0,1,0-21.3-.86,10.66,10.66,0,0,0,21.3.86Z"/><path d="M362.75,411.42v-6.8q0-46.74,0-93.46c0-7.3,3.24-11.58,9-12.31,7.23-.9,12.18,4,12.2,12.22q0,42.72,0,85.46v14.79c1.91-1.76,3.1-2.79,4.22-3.9,13.32-13.31,26.57-26.67,40-39.87a16.8,16.8,0,0,1,7-4.37c4.6-1.2,8.58.6,11.12,4.75s2.08,8.26-.84,12.09a26,26,0,0,1-2.37,2.56Q412.94,412.81,382.72,443c-6.71,6.69-12.09,6.67-18.86-.07q-30.24-30.18-60.39-60.47a16.5,16.5,0,0,1-4.28-6.55,9.59,9.59,0,0,1,4.3-11.3,10.09,10.09,0,0,1,12.14.33,34.41,34.41,0,0,1,4,3.7l38.54,38.51C359.36,408.31,360.59,409.39,362.75,411.42Z"/></svg>