<svg id="Layer_1" data-name="Layer 1" xmlns="http://www.w3.org/2000/svg" viewBox="0 0 512 512"><path d="M189.38.65c3.19.85,6.44,1.51,9.55,2.58,17.76,6.06,29.45,18.16,34.84,36.07,1,3.3,2.39,4.08,5.5,4,9-.16,17.94-.11,26.91,0,8.4.08,12.05,3.8,12.18,12.24,0,2.79,0,5.58,0,8.94,11.08,0,21.66-.18,32.24,0,17.93.36,32.34,7.81,43,22.28,6.92,9.42,10,20.18,10,31.76q.1,62.29,0,124.59a19.27,19.27,0,0,1-.73,5.4,10.17,10.17,0,0,1-10.18,7.25c-4.77-.24-8.28-2.61-9.68-7.23a25.5,25.5,0,0,1-.78-7.37c0-40-.52-80.08.17-120.1.35-20.48-14.13-36.49-35.78-35.52-9.1.41-18.24.07-28.23.07,0,3.25,0,6.16,0,9.06-.18,20.34-13.48,33.53-33.9,33.55q-61.82,0-123.61,0c-20.23,0-33.71-13.47-33.91-33.71,0-2.77,0-5.55,0-8-13.48,0-26.52-1.23-39.22.33-13.83,1.71-23.45,14.72-24.5,29.47-.1,1.33-.09,2.66-.09,4q0,135.54,0,271.1c0,16.73,8.6,29.12,23.28,33.13A47.41,47.41,0,0,0,58.72,426q71.52.13,143.05.07c7.42,0,11.71,3,12.59,8.66a10.55,10.55,0,0,1-9.81,12.45c-1.49.13-3,.06-4.49.06H58.51c-34,0-56.56-22.52-56.57-56.43q0-135.06,0-270.11C2,87.09,24.58,64.48,58.18,64.45c9.42,0,18.85,0,28.76,0,0-3.3,0-6.08,0-8.86.18-8.33,4-12.24,12.25-12.3,10.29-.09,20.58,0,30.91,0a29.4,29.4,0,0,0,1.25-2.93c6.36-21.41,20.53-34.28,42.33-38.87a7.58,7.58,0,0,0,1.73-.82Zm67.75,63.8c-10.61,0-20.56,0-30.5,0-7.43-.06-11.31-3.69-12.09-11.06a52.71,52.71,0,0,0-.85-6.89C210,31.35,196,20.83,181.09,21.94c-16.44,1.22-28.31,12.91-30.19,29.74-1.14,10.2-4,12.76-14.37,12.77H108.37V92.32c0,11.57,3.2,14.74,14.83,14.74q59.52,0,119.05,0a33.67,33.67,0,0,0,5.95-.33c5.21-.93,8.76-4.62,8.87-9.89C257.29,86.24,257.13,75.65,257.13,64.45Z"/><path d="M512.42,310.67c-2.72,10.21-9.75,17.34-17,24.53q-77.67,77.4-155.24,154.89a24.22,24.22,0,0,1-11.4,6.21c-23.51,5.08-47.13,9.66-70.72,14.34-8.85,1.76-15.17-4.51-13.43-13.26,4.83-24.24,9.6-48.49,14.66-72.69a17,17,0,0,1,4.36-8.09Q345.32,334.7,427.18,253c13.54-13.52,32.62-13.53,46.29-.19,9.87,9.63,20,19.09,29.09,29.4,4.33,4.89,6.64,11.58,9.86,17.46ZM268.6,486.44c2.4-.29,3.87-.36,5.3-.64,15.77-3.16,31.55-6.28,47.28-9.63a13.29,13.29,0,0,0,6.33-3.33q79.56-79.3,158.92-158.79c6.28-6.28,6.32-11.82.16-18.07-8.51-8.62-17.11-17.17-25.69-25.73-8.12-8.12-12.78-8.11-20.91,0-49.43,49.42-98.73,99-148.45,148.12-8.11,8-13.68,16.21-15.15,27.81C274.71,459.45,271.38,472.5,268.6,486.44Z"/><path d="M182.87,170.86H284.54c1.82,0,3.66-.05,5.47.12a10.47,10.47,0,0,1,9.69,10.2,10.68,10.68,0,0,1-9.22,10.71A31.85,31.85,0,0,1,286,192q-103.41,0-206.82,0a20.76,20.76,0,0,1-6.35-.77,10.26,10.26,0,0,1-7-10.83,10.43,10.43,0,0,1,9.41-9.4,52.63,52.63,0,0,1,5.48-.14Z"/><path d="M182.88,234.66H284.55c1.82,0,3.66-.06,5.47.12A10.47,10.47,0,0,1,299.7,245,10.72,10.72,0,0,1,291,255.63a21.83,21.83,0,0,1-4,.21q-104.16,0-208.31,0a18.88,18.88,0,0,1-5.86-.76,10.31,10.31,0,0,1-7-10.85,10.42,10.42,0,0,1,9.42-9.39,52.63,52.63,0,0,1,5.48-.14Z"/><path d="M183,298.46H284.62c1.66,0,3.33,0,5,.09a10.52,10.52,0,0,1,10.11,10.32,10.69,10.69,0,0,1-9.81,10.69,41.82,41.82,0,0,1-4.48.08H80.1c-1.33,0-2.67.06-4,0-6-.44-10.37-5-10.33-10.69a10.32,10.32,0,0,1,10.53-10.36c13-.18,25.91-.08,38.87-.09Z"/></svg>