<svg id="Layer_1" data-name="Layer 1" xmlns="http://www.w3.org/2000/svg" viewBox="0 0 512 512"><path d="M512,271.5c-1.29,9.34-2.16,18.77-3.93,28-13.88,72.25-52.38,127.83-115,166.37-40.57,25-85.2,36-132.85,35C163.38,499,74.61,437,39.64,346.87c-3.66-9.43,0-18.82,8.8-22.4,8.93-3.66,18.27.49,22.26,10.28C86.4,373.33,110.82,405.13,145,429c45.7,31.9,96.53,44.11,151.65,36.3,89.15-12.64,159.23-78.74,177.56-166.46C497.62,187.1,425.52,75.54,313.89,50.75,212.18,28.16,111.78,80.07,71.74,176c-2.78,6.67-6.39,12.17-14,13.49-6.17,1.08-11.64-.7-15.7-5.6-4.28-5.17-5.15-11-2.63-17.3,6.89-17.18,15.25-33.63,26-48.73,45.37-63.83,107.14-99.62,185.4-105A244.33,244.33,0,0,1,507.72,211.07c1.92,10.07,2.87,20.32,4.28,30.49Z"/><path d="M0,252.54c3.88-9.57,11.06-12.87,21.24-12.85q135,.31,269.9.12h7.7c-1.94-2.08-3.07-3.36-4.28-4.57q-27.56-27.53-55.14-55c-5-5-6.92-10.92-4.76-17.74,2-6.45,6.73-10.21,13.34-11.31,6.29-1.06,11.27,1.62,15.63,6q37.77,37.78,75.64,75.49c3.77,3.76,7.6,7.46,11.38,11.21,7.57,7.53,7.61,17.76.09,25.25q-43.53,43.33-87,86.68c-4.24,4.23-9,7-15.11,6.16-6.63-.88-11.46-4.46-13.73-10.84-2.33-6.53-1-12.54,3.82-17.49,9-9.14,18.11-18.14,27.18-27.2l33.26-33.16h-7q-135.45,0-270.9.12c-10.18,0-17.35-3.3-21.25-12.85Z"/></svg>