<svg id="Layer_1" data-name="Layer 1" xmlns="http://www.w3.org/2000/svg" viewBox="0 0 512 512"><path d="M512,260c-5.32,7.78-10.1,16-16.06,23.26-32.3,39.28-70.07,72-115.73,95.06-30.89,15.59-63.48,25.52-98,28.8-67.65,6.41-128.8-11.59-184.78-49-36.11-24.16-66.25-54.55-92.46-89C2.86,266.39,1.62,263.05,0,260v-8c5.32-7.78,10.1-16,16.06-23.26,32.3-39.28,70.07-72,115.73-95.06,30.89-15.59,63.48-25.52,98-28.8,67.65-6.41,128.8,11.59,184.78,49,36.11,24.16,66.25,54.55,92.46,89,2.07,2.72,3.31,6.06,4.93,9.11ZM259,363.5c58.58-1,105.75-51,104.57-110.83-1.15-58.34-50.64-105.15-110.14-104.18-59.19,1-106.14,50.5-105,110.8C149.51,317.78,199.12,364.54,259,363.5Z"/><path d="M256.31,198c31.41,0,57.62,25.87,57.68,57,.06,32.45-25.89,58.84-57.95,58.92A57.94,57.94,0,1,1,256.31,198Z"/></svg>