<svg id="Layer_1" data-name="Layer 1" xmlns="http://www.w3.org/2000/svg" viewBox="0 0 512 512"><path d="M512,324c-2,8.71-3.37,17.63-6.15,26.09-16.39,50-66.69,82.05-118.73,75.8-18.37-2.21-34.34-10.45-48.47-22-7.58-6.21-14.28-13.48-21.58-20.05a9.88,9.88,0,0,0-5.92-2.61q-54-.23-108,0a10.38,10.38,0,0,0-6.63,3.19c-14.89,15.61-31.22,29.34-51.86,36.42-36.53,12.53-70.17,4.9-100.46-17.55C18.9,384.5,5,358.53.91,327.27A22.63,22.63,0,0,0,0,324V302c1.18-6.18,2-12.43,3.58-18.52,12.67-50.14,55.12-83.8,106.9-84.32,37-.37,74-.09,111-.09H227c2.14-8.89,3.35-17.71,6.46-25.8A104.35,104.35,0,0,1,246,150.05c10.8-15.11,15.68-31.77,15.75-50.09,0-.84,0-1.67.06-2.5.32-7.31,4.74-12.11,11.2-12.18,6.63-.06,11.29,5,11.37,12.48.28,22.9-4.74,44.24-18.44,63.07C257.75,172,251.69,184.11,251.05,199h5.87c47.15,0,94.3-.4,141.44.12,41.45.45,74.05,18.11,96.64,53.21,8.95,13.92,14,29.34,16.05,45.77A32,32,0,0,0,512,302ZM255.47,221.93v-.05q-70,0-139.95.07a103,103,0,0,0-19.87,1.53c-34.43,7-58.23,26.93-68.38,60.61-10.46,34.72-4.15,66.78,21.45,93.51,23.64,24.68,72,40.48,111.62,8.53,9.16-7.38,17.06-16.3,25.76-24.28,1.86-1.7,4.66-3.38,7-3.39q64-.3,128,0a10.76,10.76,0,0,1,6.69,3.06c6.19,6,11.74,12.76,18,18.67,21,19.76,45.28,28.25,74.24,21.33,62.09-14.84,84.1-81.37,59.38-130.71-15.9-31.7-42.94-48-78-48.64C352.77,221.25,304.11,221.93,255.47,221.93Z"/><path d="M113.85,312.9c0,7.64.16,14.76,0,21.87-.27,9.39-8.78,15-16.53,10.93-4.21-2.2-6.23-5.86-6.25-10.59,0-7.15,0-14.29,0-22.22-7.31,0-14.39,0-21.47,0-5.29,0-9.42-1.94-11.64-7-3.37-7.62,2.05-15.58,10.93-15.83,7.14-.2,14.29,0,22.19,0,0-7.67-.12-15.1,0-22.52a11.32,11.32,0,0,1,8.84-11.28c4.54-1.09,9.81.86,12,5.14a20,20,0,0,1,1.9,8.1c.26,6.62.08,13.26.08,20.56,7.64,0,14.91-.18,22.17,0,9.52.29,14.86,9.47,10.17,17.2-2.49,4.11-6.33,5.63-11,5.61C128.25,312.86,121.3,312.9,113.85,312.9Z"/><path d="M387.14,336a22.32,22.32,0,0,1,22.47,22.52,22.77,22.77,0,0,1-45.54-.13C364.09,345.53,374.06,335.85,387.14,336Z"/><path d="M432.23,267.27a22.65,22.65,0,0,1-45.3.26c-.07-12.79,9.86-22.62,22.81-22.59S432.19,254.55,432.23,267.27Z"/><path d="M352.57,324.14a22.58,22.58,0,0,1-22.57-23c.13-12.48,10.12-22.18,22.82-22.15a22.19,22.19,0,0,1,22.55,22.38A22.6,22.6,0,0,1,352.57,324.14Z"/><path d="M466.41,313.05c-.11,12.53-10.67,22.88-23.06,22.6A23,23,0,0,1,421,312.8a22.36,22.36,0,0,1,23.08-22.36C456.8,290.69,466.51,300.53,466.41,313.05Z"/><path d="M284.63,312.88c-3.65,0-7.31.11-11,0-7.12-.23-11.86-4.88-11.83-11.45,0-6.36,4.64-11.11,11.46-11.3,7.48-.21,15-.23,22.44,0,6.79.21,11.39,5.05,11.35,11.41s-4.64,11-11.47,11.31C292,313,288.29,312.88,284.63,312.88Z"/><path d="M215.54,312.87c-3.66,0-7.32.17-11,0a11.37,11.37,0,0,1-11.1-11.25,11.19,11.19,0,0,1,10.9-11.41c7.8-.31,15.63-.29,23.44,0a11.34,11.34,0,0,1,11.12,11.23c.06,6.18-4.78,11.15-11.42,11.46C223.53,313,219.53,312.88,215.54,312.87Z"/></svg>