<svg id="Layer_1" data-name="Layer 1" xmlns="http://www.w3.org/2000/svg" viewBox="0 0 512 512"><path d="M0,485V26C2.69,18.26,6.05,10.84,13.24,6.26,17.21,3.74,21.73,2.06,26,0H485c4.62,2.07,9.56,3.63,13.79,6.31C506.27,11.05,509.7,18.75,512,27V485c-1.12,3.07-2,6.25-3.41,9.18C503.8,504.12,495.27,509.24,485,512H27c-4.75-2.17-9.83-3.84-14.17-6.63C5.54,500.68,2.27,493.06,0,485ZM21.51,330.37h468.9V181.72H21.51ZM490.75,159.79V36.26c0-11.54-3.42-15-14.81-15H36c-11.19,0-14.76,3.52-14.77,14.54q0,59.25,0,118.48v5.52Zm0,192.53H21.25V475.51c0,11.86,3.34,15.24,15.08,15.24H475.74c11.51,0,15-3.45,15-14.83V352.32Z"/></svg>