<svg id="Layer_1" data-name="Layer 1" xmlns="http://www.w3.org/2000/svg" viewBox="0 0 512 512"><path d="M123,512H27c-4.75-2.17-9.82-3.83-14.17-6.62C5.54,500.73,2.27,493.13,0,485.08V154.68c.66-1.65,1.36-3.29,2-5C6.44,137.66,17.71,129,30.44,128.85c32.41-.24,64.82-.08,97.57-.08v-4.38q0-44.91,0-89.8c0-20,13.59-33.58,33.51-33.61q41-.07,82,0C263.66,1,277,14.24,277.26,34.29c.05,4.77,0,9.55,0,14.73,1.69-.32,2.8-.46,3.87-.75q40.5-10.79,81-21.6c20-5.31,36.39,4.11,41.73,24Q452,230.16,500.15,409.6C504,423.82,508.06,438,512,452.14v11c-4,15.94-14.63,24.39-30.4,27.66-9.4,1.94-18.62,4.81-27.89,7.34Q428.36,505,403,512H392c-16.08-4.38-23.92-15.47-27.55-31.28-4.64-20.2-10.61-40.1-16-60.14Q316.61,301.81,284.74,183c-2.17-8.1-4.43-16.19-6.65-24.28l-.82.15v5.31q0,155.37,0,310.76c0,2.16,0,4.32-.08,6.48a31.5,31.5,0,0,1-21.61,28.87c-1.53.53-3,1.16-4.55,1.75H155l-16.53-7Zm26.6-85.09v5.95q0,22,0,43.91c0,10.8,3.19,14,14,14q39,0,78,0c10.87,0,14.45-3.55,14.45-14.26q0-220,0-440c0-10.78-3.54-14.34-14.34-14.34h-77c-12.15,0-15.44,3.26-15.43,15.35q.17,126.72.35,253.44.06,54.13,0,108.26v6.25h8.6c14.49,0,29-.1,43.48,0,6.8.07,11.19,4.14,11.48,10s-3.51,10.38-9.7,11.21a33.58,33.58,0,0,1-4.49.16H149.61Zm224.24,4.43c.24,1.51.33,2.65.62,3.73,4.09,15.24,8.17,30.48,12.34,45.7,2.33,8.51,7.15,11.3,15.7,9q38.82-10.32,77.6-20.79c9.21-2.48,12-7.27,9.59-16.25Q436.6,255,383.45,57.28c-2.67-10-7-12.42-16.85-9.79q-38.09,10.17-76.17,20.33c-10,2.66-12.65,7.13-9.94,17.22Q322.84,242.87,365.2,400.7c.88,3.3,1.93,6.55,3,10.08l22.26-5.89c9.8-2.59,19.56-5.42,29.44-7.69,6.21-1.43,11.13,1.88,12.67,7.61C434,410.3,431,415.54,425,417.58c-1.89.64-3.84,1.1-5.77,1.62C404.17,423.25,389.1,427.28,373.85,431.37Zm-352-4.43a10.88,10.88,0,0,0-.53,1.83q-.06,24-.08,47.9c0,10.4,3.74,14.14,14.14,14.14q39,0,78,0c11.16,0,14.63-3.47,14.63-14.58V164.38c0-10.86-3.51-14.43-14.26-14.43q-39,0-78,0c-10.84,0-14.51,3.6-14.51,14.27q0,117.75,0,235.51v5.75h6.12c15.17,0,30.33-.06,45.5,0,7.7.05,12.33,4.21,12.31,10.74s-4.67,10.61-12.39,10.67c-11.83.09-23.66,0-35.49,0Z"/><path d="M213.26,214.59q0,66.87,0,133.72c0,9.55-3.54,14.51-10.41,14.65-7.06.14-10.84-5-10.84-14.78V79.24c0-1.5-.07-3,.07-4.49a10.7,10.7,0,0,1,10.65-9.87,10.45,10.45,0,0,1,10.44,10c.14,1.82.09,3.66.09,5.49Z"/><path d="M342.15,98.62c5.55,0,9.07,3.06,10.86,9.73q7.26,26.93,14.47,53.87,23.92,89.22,47.79,178.46a16.81,16.81,0,0,1,.16,8.73c-1.36,4.54-5.13,6.83-9.95,6.85s-8.79-3.18-10.29-8.61c-3-10.72-5.76-21.49-8.65-32.23q-27-100.52-54-201C330.13,105.24,334.14,98.67,342.15,98.62Z"/><path d="M85.25,277.82c0,24.44.06,48.89,0,73.34,0,8.61-6.76,13.8-14.12,11.08-5-1.84-7.09-5.73-7.09-10.9q0-16.71,0-33.43,0-55.38,0-110.75a43.48,43.48,0,0,1,.1-5,10.66,10.66,0,0,1,11-9.52,10.25,10.25,0,0,1,10,9.83c.28,5.64.14,11.31.14,17Q85.27,248.64,85.25,277.82Z"/></svg>