<svg id="Layer_1" data-name="Layer 1" xmlns="http://www.w3.org/2000/svg" viewBox="0 0 512 512"><path d="M512,101c-.36,1.09-.76,2.16-1.09,3.26-4.32,14.57-16.25,23.67-31.49,23.71-27.82.09-55.64,0-83.46,0q-96,0-191.92,0c-16.31,0-29-9.73-32.48-24.93a46.15,46.15,0,0,1-.78-9.92q-.09-29,0-58c0-18.65,7.55-28.82,25.5-34.55.29-.09.5-.41.75-.62H485c4.62,2.07,9.56,3.63,13.79,6.31C506.26,11.05,509.71,18.75,512,27Zm-171,5.75q68,0,136,0c9.82,0,13.76-3.87,13.78-13.54q.06-29.24,0-58.49c0-9.45-4-13.44-13.35-13.45q-136,0-272,0c-9.51,0-13.41,3.9-13.42,13.28q0,28.24,0,56.49c0,12.63,3,15.72,15.51,15.72Z"/><path d="M512,293c-1.64,4-2.78,8.24-5,11.85C500.73,315,491.28,320,479.4,320q-48.25.11-96.5,0c-59,0-118-.35-177,.2-19.39.18-36-13.78-35.3-35.22.69-19.64.1-39.33.17-59,.07-20.77,13.35-34,34.15-34q135.51,0,271,0c19.52,0,29.35,7.13,35.45,25.69A11.24,11.24,0,0,0,512,219Zm-170.81,5.75q68,0,136,0c9.5,0,13.55-3.95,13.57-13.24q.09-29.51,0-59c0-9.16-4-13.24-13.05-13.24q-136.47,0-273,0c-8.75,0-12.71,4.14-12.72,13q0,29,0,58c0,11.08,3.48,14.52,14.71,14.52Z"/><path d="M197,512c-2-.74-4-1.36-6-2.22-12.34-5.5-19.85-14.78-20.09-28.46-.41-22.15-.38-44.32,0-66.47.27-17.31,14.19-30.66,31.65-30.8,20.66-.17,41.32-.05,62-.05H472.94c23.15,0,30.86,5.33,39.06,27v74c-1.12,3.07-2,6.25-3.41,9.18C503.8,504.12,495.27,509.24,485,512Zm144-21.25q68,0,136,0c9.81,0,13.75-3.87,13.77-13.55q.06-29.24,0-58.49c0-9.45-4-13.43-13.36-13.44q-136,0-272,0c-9.5,0-13.4,3.91-13.41,13.29q0,28.49,0,57c0,11.91,3.25,15.21,15,15.21Z"/><path d="M101,0c4.66,2.1,9.75,3.57,13.89,6.42a29.13,29.13,0,0,1,13,24.63c.23,22,.28,43.93,0,65.89a31.5,31.5,0,0,1-31,31c-22,.27-43.93.22-65.89,0-13.21-.12-24.68-8.81-29.12-21.32C1.23,104.73.63,102.86,0,101V26C2.69,18.26,6.05,10.84,13.24,6.26,17.21,3.74,21.73,2.06,26,0ZM21.25,64c0,9.65,0,19.31,0,29,0,9.83,3.85,13.76,13.51,13.78q29.22.06,58.44,0c9.45,0,13.5-4,13.52-13.27q.09-29.46,0-58.94c0-9.17-4-13.23-13-13.26q-29.72-.09-59.44,0c-9,0-13,4.09-13,13.25C21.21,44.34,21.25,54.16,21.25,64Z"/><path d="M0,218c.61-1.5,1.29-3,1.83-4.49,4.53-12.75,16.06-21.35,29.56-21.45,21.81-.17,43.61-.23,65.42,0A31.49,31.49,0,0,1,127.9,223q.43,33,0,65.91a31.52,31.52,0,0,1-31,31c-22,.27-44,.22-65.92,0A31.45,31.45,0,0,1,1.89,298.59C1.23,296.74.63,294.86,0,293Zm64,80.75c9.65,0,19.31,0,29,0,9.81,0,13.75-3.87,13.77-13.53q.06-29.22,0-58.44c0-9.46-4-13.48-13.28-13.5q-29.46-.08-58.94,0c-9.17,0-13.22,4-13.25,13q-.09,29.72,0,59.44c0,9,4.1,13,13.26,13C44.35,298.79,54.17,298.75,64,298.75Z"/><path d="M0,410c.61-1.5,1.29-3,1.83-4.49,4.53-12.75,16.07-21.35,29.57-21.45q32.46-.26,64.93,0a31.65,31.65,0,0,1,31.6,31.45c.22,21.64.18,43.29,0,64.93a31.89,31.89,0,0,1-23.18,30.36c-1.26.37-2.51.8-3.76,1.21H27c-4.75-2.17-9.83-3.84-14.17-6.63C5.54,500.68,2.27,493.06,0,485Zm63.66,80.75c10.16,0,20.32.08,30.47,0,8.42-.08,12.56-4.2,12.59-12.67q.12-30.23,0-60.44c0-8.15-4.23-12.29-12.41-12.33q-30.22-.13-60.44,0c-8.44,0-12.55,4.18-12.58,12.66q-.12,30,0,59.94c0,8.75,4.13,12.78,12.92,12.85C44,490.81,53.84,490.75,63.66,490.75Z"/></svg>