<svg id="Layer_1" data-name="Layer 1" xmlns="http://www.w3.org/2000/svg" viewBox="0 0 512 512"><path d="M217,512c-11-2.56-21.23-6.53-29.51-14.55-10.24-9.94-16.43-21.89-16.54-36.22-.29-36.09-.19-72.19-.15-108.28,0-6.74,4.68-11.43,10.71-11.32S192,346.45,192,353.27q.09,51.41,0,102.8c0,21.27,13.31,34.69,34.54,34.7q114.73.06,229.46,0c21.24,0,34.73-13.44,34.74-34.59q0-199.6,0-399.21c0-21.5-13.4-34.83-35-34.84q-114.48,0-229,0c-21.59,0-34.79,13.3-34.8,34.94q0,50.9,0,101.8c0,8-5,13.07-11.7,12.3-5.62-.65-9.38-4.79-9.47-11-.15-9.81-.06-19.63-.06-29.44,0-24.62,0-49.24,0-73.86.06-33.45,22.68-56,56.17-56q114.48,0,229,0c29,0,49.08,16.23,55.34,44.7.09.44.51.81.77,1.21V466.08c-.35,1.06-.78,2.09-1,3.17-4.8,20.1-16.9,33.61-36.51,40.32-2.77.95-5.63,1.63-8.45,2.43Z"/><path d="M341.43,253.49c-2.89-6-7.79-7.81-14.23-7.8q-141.69.15-283.38.06H36.91c2-2.12,3.14-3.43,4.38-4.66,20.13-20.12,40.34-40.17,60.35-60.41a18.76,18.76,0,0,0,4.75-8.37c1.07-4.48-1.34-8.1-5.33-10.31a9.84,9.84,0,0,0-11.27.86,42.08,42.08,0,0,0-4.38,4.08L4.05,248c-5.38,5.36-5.37,11.64,0,17L82.6,343.25l3.19,3.18q10.17,10.13,17.72,2.78c4.92-4.76,4-11.19-2.5-17.7q-29.67-29.64-59.38-59.25c-1.3-1.29-2.78-2.39-4.17-3.58l.37-1.46h5.48q141.69,0,283.38.07c6.59,0,11.73-1.62,14.74-7.81Z"/></svg>