<svg id="Layer_1" data-name="Layer 1" xmlns="http://www.w3.org/2000/svg" viewBox="0 0 512 512"><path d="M512,238.5v35.94a35.32,35.32,0,0,0-.88,4.28C508,314.78,498,348.81,479.93,380.18c-40,69.54-99.37,112.41-178.37,127.76-9.11,1.77-18.37,2.73-27.56,4.06H238c-7.89-1.07-15.84-1.87-23.67-3.25-62.24-11-114-40.4-154.72-88.69C28.47,383.1,9.52,340.5,2.8,292.58c-1-7-1.87-14.09-2.8-21.14V241.5c.31-1.62.66-3.23.92-4.85C3.26,222.41,4.55,207.91,8.08,194,33.73,92.9,116.48,18.78,220.53,3.71,280.45-5,336.75,6.5,388.25,38.05,453.73,78.17,493.77,136.41,508.06,212,509.72,220.74,510.7,229.65,512,238.5ZM307.8,467.82c64-12.47,147.28-72.16,163.93-176.43,16.73-104.81-42.27-202.67-139-239.18-96.25-36.33-207.25,1.3-261.6,88s-36.57,191.15,13.74,251c7.15-4.6,14.7-8.86,21.51-14.08a32.51,32.51,0,0,0,8.78-11c10.6-21.14,22.26-41.53,37.56-59.77,4.43-5.27,7.78-11.52,11.11-17.61,3.73-6.82,6.72-14,10.35-20.92,2.38-4.5,5.34-8.7,8.39-13.58a73.9,73.9,0,0,1-6.44-5.83c-6.56-7.47-13.53-14.68-19.25-22.77-5.37-7.59-4-11.58,3.92-16.18,3.7-2.14,7.71-4.22,11.84-5.06a167,167,0,0,1,25.14-3.56,73.07,73.07,0,0,0,37-11.93c9.76-6.3,20.1-11.74,30.34-17.24,6.14-3.3,12.74-4.66,19.8-2.94a23.82,23.82,0,0,0,20.34-4.1c4.6-3.29,9.69-5.92,14.13-9.39,19.39-15.17,38.6-30.56,57.92-45.83,3.07-2.42,6.32-4.61,10.14-7.38,8.1,14,14.66,27.56,11.84,43.41-1.26,7.1-4.38,13.86-6.48,20.84-.36,1.21.21,2.7.35,4.06,1.43-.55,3.14-.8,4.22-1.74a9.77,9.77,0,0,0,2.1-3.88c.66-1.74,1.11-3.57,1.9-6.18,2,1.79,3.43,2.89,4.69,4.14,2.6,2.58,5.47,3.68,9,2,4.4-2,7,.24,8.72,4,7.14,15-.59,36.44-15.47,43.8a54.26,54.26,0,0,0-11.93,8c-9.78,8.72-17.25,19.26-23.49,30.76-3.88,7.14-7.76,14.36-12.46,21-13.07,18.3-18.16,39.4-21.27,60.94-1.37,9.53.89,19.53.79,29.32-.12,13-2.48,25.44-12.19,35.34a24.53,24.53,0,0,0-4.51,7.13c-5.68,12.6-12.5,24.65-11.77,39.47C311.89,452.15,309.14,460,307.8,467.82Z"/></svg>