<svg id="Layer_1" data-name="Layer 1" xmlns="http://www.w3.org/2000/svg" viewBox="0 0 512 512"><path d="M512,260.49c-4.42,12.54-13.39,17.05-26.49,17q-230.47-.33-460.95-.14C11,277.38,1.41,269,1,256.84c-.39-11.74,8.37-21.23,20.46-22.09,2.15-.16,4.32-.08,6.48-.08q228.48,0,457-.14c13.17,0,22.53,4.16,27.07,17Z"/><path d="M512,97.81c-2.31,3.55-3.95,8-7.11,10.43-3.58,2.8-8.45,4.05-12.89,5.62-1.64.58-3.63.16-5.46.16q-230,0-460,0a38,38,0,0,1-11.29-1.26A20.9,20.9,0,0,1,1.14,90.07,21.2,21.2,0,0,1,21,71.69c2.16-.11,4.33-.08,6.49-.08q228.51,0,457-.18c13.19,0,22.52,3.85,27.45,16.4Z"/><path d="M512,424.17c-.58,1.14-1.2,2.27-1.75,3.43-3.6,7.73-9.57,12.15-18.14,12.8-2.32.18-4.65.17-7,.17q-228.71,0-457.42,0a48.86,48.86,0,0,1-10.9-.78c-10.12-2.38-17-12.71-15.68-23a21.26,21.26,0,0,1,20.22-18.6c2-.07,4,0,6,0q229.22,0,458.42-.15c13.21,0,22.07,4.51,26.24,17.24Z"/></svg>