<svg id="Layer_1" data-name="Layer 1" xmlns="http://www.w3.org/2000/svg" viewBox="0 0 512 512"><path d="M101,0c4.66,2.1,9.75,3.57,13.89,6.42a29.13,29.13,0,0,1,13,24.63c.23,22,.28,43.93,0,65.89a31.5,31.5,0,0,1-31,31c-22,.27-43.93.22-65.89,0-13.21-.12-24.68-8.81-29.12-21.32C1.23,104.73.63,102.86,0,101V26C2.69,18.26,6.05,10.84,13.24,6.26,17.21,3.74,21.73,2.06,26,0ZM21.26,63.64c0,10.32-.11,20.64,0,31,.11,7.85,4.26,12,12.13,12.1q30.46.17,60.94,0c8.15,0,12.31-4.21,12.35-12.39q.17-30.21,0-60.44c0-8.44-4.19-12.57-12.65-12.6q-30-.12-59.94,0c-8.77,0-12.79,4.1-12.86,12.9C21.19,44,21.25,53.81,21.26,63.64Z"/><path d="M293,0c4.67,2.1,9.77,3.57,13.91,6.43a29.19,29.19,0,0,1,13,24.68c.23,22,.3,44,0,66a31.42,31.42,0,0,1-30.73,30.79q-33.24.48-66.49,0c-16.68-.26-30.38-14.21-30.58-30.95-.26-22-.22-44,0-66,.12-13,8.7-24.46,20.93-29,1.68-.62,3.32-1.32,5-2Zm5.75,64.26c0-10,.05-20,0-30-.06-8.84-4.07-13-12.75-13q-30-.12-59.94,0c-8.71,0-12.74,4.16-12.77,13q-.09,29.73,0,59.44c0,9,4.1,13,13.24,13q29.48.08,58.94,0c9.31,0,13.24-4,13.29-13.5C298.79,83.57,298.75,73.91,298.75,64.26Z"/><path d="M512,101c-1.71,4.11-2.9,8.56-5.25,12.26-6,9.52-15,14.55-26.3,14.66q-32.46.33-64.93,0a31.69,31.69,0,0,1-31.47-31.6c-.19-21-.08-41.95,0-62.93,0-16.27,8.62-27.63,24.35-32.46A8.45,8.45,0,0,0,410,0h75c4.62,2.07,9.56,3.63,13.79,6.31C506.26,11.05,509.71,18.75,512,27ZM490.75,64.23c0-9.65,0-19.31,0-29,0-10.13-3.8-14-13.78-14q-29,0-57.94,0c-9.83,0-13.74,3.84-13.76,13.52q-.06,29.22,0,58.44c0,9.46,4,13.49,13.28,13.51q29.46.08,58.94,0c9.29,0,13.21-4.06,13.26-13.53C490.79,83.55,490.75,73.89,490.75,64.23Z"/><path d="M0,218c.61-1.5,1.29-3,1.83-4.49,4.53-12.75,16.06-21.35,29.56-21.45,21.81-.17,43.61-.23,65.42,0A31.49,31.49,0,0,1,127.9,223q.43,33,0,65.91a31.52,31.52,0,0,1-31,31c-22,.27-44,.22-65.92,0A31.45,31.45,0,0,1,1.89,298.59C1.23,296.74.63,294.86,0,293Zm63.75,80.75c9.66,0,19.32,0,29,0,10.11,0,14-3.81,14-13.78q0-29,0-57.94c0-9.82-3.87-13.74-13.53-13.76q-29.22-.06-58.44,0c-9.47,0-13.48,4-13.5,13.27q-.07,29.47,0,58.94c0,9.31,4.05,13.23,13.51,13.27C44.44,298.78,54.1,298.75,63.75,298.75Z"/><path d="M512,293c-.73,2.19-1.37,4.42-2.2,6.57a31.62,31.62,0,0,1-28.88,20.35c-22,.2-44,.28-66,0a31.53,31.53,0,0,1-30.86-31.18q-.36-32.73,0-65.47a31.6,31.6,0,0,1,31.38-31.19c21.66-.21,43.32-.16,65,0,13.93.1,25.67,9,30,22.28L512,219Zm-21.25-36.84c0-9.82,0-19.64,0-29.47-.05-9.44-4-13.4-13.36-13.43q-29.46-.06-58.94,0c-9.1,0-13.15,4-13.17,13.09q-.09,29.46,0,58.94c0,9.43,4,13.41,13.35,13.44q29.46.06,58.94,0c9.08,0,13.12-4.05,13.18-13.1C490.8,275.81,490.75,266,490.75,256.16Z"/><path d="M0,410c.61-1.5,1.29-3,1.83-4.49,4.53-12.75,16.07-21.35,29.57-21.45q32.46-.26,64.93,0a31.65,31.65,0,0,1,31.6,31.45c.22,21.64.18,43.29,0,64.93a31.89,31.89,0,0,1-23.18,30.36c-1.26.37-2.51.8-3.76,1.21H27c-4.75-2.17-9.83-3.84-14.17-6.63C5.54,500.68,2.27,493.06,0,485Zm63.73,80.75c10.15,0,20.31.08,30.47,0,8.21-.08,12.46-4.15,12.51-12.24q.17-30.47,0-60.94c0-8.11-4.27-12.22-12.48-12.26q-30.21-.13-60.44,0c-8.41,0-12.48,4.21-12.51,12.73q-.12,30,0,59.94c0,8.7,4.16,12.72,13,12.78C44.08,490.8,53.9,490.75,63.73,490.75Z"/><path d="M219,512c-3.4-1.3-7-2.23-10.16-4-10.76-6-16.61-15.31-16.76-27.61q-.37-32.49,0-65a31.59,31.59,0,0,1,31.19-31.36q32.73-.37,65.47,0a31.58,31.58,0,0,1,31.2,31.36c.22,21.65.18,43.31,0,65a31.9,31.9,0,0,1-23.18,30.39c-1.26.37-2.51.8-3.76,1.21Zm-5.75-64.24c0,9.66,0,19.31,0,29,0,10.13,3.8,14,13.78,14q29,0,57.94,0c9.8,0,13.74-3.88,13.76-13.54q.06-29.22,0-58.44c0-9.46-4-13.47-13.29-13.49q-29.47-.07-58.94,0c-9.31,0-13.21,4-13.25,13.52C213.22,428.45,213.25,438.1,213.25,447.76Z"/><path d="M411,512c-5.43-2.73-11.44-4.72-16.17-8.36-7.32-5.64-10.73-13.89-10.78-23.19-.12-21.63-.19-43.26,0-64.89a31.68,31.68,0,0,1,31.53-31.51c21.14-.19,42.27-.09,63.4,0,15.85,0,27.53,8.94,32,24.22.28.94.66,1.84,1,2.76v74c-1.12,3.07-2,6.25-3.41,9.18C503.8,504.12,495.27,509.24,485,512Zm-5.75-64.26c0,9.66,0,19.32,0,29,0,10.14,3.8,14,13.76,14q29,0,57.94,0c9.82,0,13.76-3.87,13.78-13.52q.06-29.22,0-58.44c0-9.47-4-13.49-13.27-13.51q-29.48-.07-58.94,0c-9.33,0-13.23,4-13.27,13.5C405.22,428.43,405.25,438.09,405.25,447.74Z"/><path d="M320,256.23c0,10.32.06,20.65,0,31-.14,18.95-13.89,32.7-32.88,32.78q-31.22.13-62.44,0c-18.68-.09-32.54-13.88-32.63-32.5q-.17-31.46,0-62.93c.09-18.66,13.92-32.43,32.61-32.52q31.47-.14,62.94,0c18.37.1,32.19,13.89,32.39,32.23C320.09,234.92,320,245.58,320,256.23Zm-21.25-.07c0-9.82,0-19.64,0-29.47-.05-9.44-4-13.4-13.35-13.43q-29.47-.06-58.94,0c-9.11,0-13.16,4-13.18,13.09q-.09,29.46,0,58.93c0,9.44,4,13.42,13.35,13.45q29.46.06,58.94,0c9.08,0,13.12-4.05,13.18-13.1C298.8,275.81,298.75,266,298.75,256.16Z"/></svg>