<svg id="Layer_1" data-name="Layer 1" xmlns="http://www.w3.org/2000/svg" viewBox="0 0 512 512"><path d="M0,272V240c1.12-8.55,2-17.16,3.4-25.66,9-53.25,32.42-99.33,70.35-137.77C112,37.75,158.12,13.39,211.91,3.93,221.22,2.3,230.63,1.29,240,0h32c8.72,1.14,17.48,2,26.14,3.46,48.09,8.22,90.63,28.32,127.06,60.74,44.55,39.63,72.4,88.86,82.87,147.69,1.66,9.31,2.64,18.74,3.93,28.11v32a29.21,29.21,0,0,0-.83,3.86c-3,39.49-14.34,76.47-35,110.25-40.64,66.57-99.32,107.51-176.13,122-9.28,1.75-18.72,2.63-28.08,3.92H240c-6.25-.77-12.51-1.44-18.73-2.33-50.76-7.29-95.65-27.55-134.07-61.56C42.53,408.57,14.66,359.37,4,300.6,2.27,291.14,1.31,281.54,0,272Zm480-16.16C479.84,132.42,379.47,32.09,256.09,32S31.88,132.69,32,256.15,132.57,479.91,255.91,480,480.15,379.27,480,255.84Z"/><path d="M239.41,286.23c.69-6.93.58-14.06,2.22-20.76,3.94-16.13,14.13-27.34,29.64-33.26,14.05-5.37,24.87-14.43,33.33-26.72,22.91-33.3,2.94-71.73-25.91-83.56-38.32-15.72-79,10.52-81.5,52.49a24,24,0,0,1-3.07,10.76c-3.71,6.07-11,8.15-17.52,6-7.17-2.34-11.5-8.37-11.28-16.43.72-25.91,10.15-48.23,29.53-65.47C221.74,85.39,253,78.74,286.86,91c33.46,12.14,53.34,37,58.73,72.1,5.09,33.08-8.79,59.64-33.09,80.84-8.36,7.29-18.81,12.4-28.78,17.57-8,4.15-11.66,8.27-11.71,17.24,0,6.49.08,13,0,19.49-.16,9.34-7.1,16.42-16,16.44s-15.81-7.13-16-16.41c-.09-4,0-8,0-12Z"/><path d="M255.9,362.79a21.21,21.21,0,1,1-21.11,21.3A21,21,0,0,1,255.9,362.79Z"/></svg>