<svg id="Layer_1" data-name="Layer 1" xmlns="http://www.w3.org/2000/svg" viewBox="0 0 512 512"><path d="M0,226.56c1.05-2.57,1.94-5.21,3.18-7.68,5.46-10.82,14.45-16.62,26.37-18.11,11.4-1.42,22.79-3,34.22-4.15,3.32-.35,4.82-1.75,6-4.79,2.73-7.3,5.72-14.52,9-21.6,1.23-2.66,1.11-4.38-.71-6.65-7.27-9.1-14.39-18.31-21.48-27.56-11.37-14.81-10.32-31.26,2.84-44.49Q75,75.76,90.83,60.13c13.08-13,29.57-14.07,44.19-2.94q13.9,10.57,27.58,21.47c2.37,1.89,4.24,2.18,7.09.86,7.09-3.26,14.33-6.23,21.65-8.92,3.14-1.15,4.29-2.87,4.66-6.07,1.43-12.38,2.78-24.79,4.82-37.07C203.46,11.66,216.3,1.14,232.41,1c15.33-.1,30.66-.05,46,0,18.31.05,31.13,11.43,33.45,29.69,1.45,11.37,2.93,22.75,4.18,34.14.34,3.06,1.53,4.53,4.5,5.62,7.48,2.75,14.87,5.8,22.09,9.18,2.79,1.3,4.49.8,6.64-.91Q363,67.9,376.85,57.27C391.33,46.13,408,47.13,421.09,60q16.17,16,32.16,32.11c12.29,12.44,13.44,29,2.93,43Q445.5,149.24,434.39,163c-2,2.5-2.43,4.39-.95,7.49,3.36,7,6.24,14.3,9,21.6,1,2.68,2.28,4,5.18,4.37,11.09,1.26,22.13,2.85,33.22,4.07,15.76,1.73,26.2,9.65,30.38,25.2a12.9,12.9,0,0,0,.8,1.79v57.88a22.09,22.09,0,0,0-.91,2.28c-4,14.4-13.7,22.38-28.33,24.43q-17.07,2.4-34.21,4.21c-3.46.36-5.18,1.65-6.36,5-2.52,7-5.36,14-8.53,20.72-1.46,3.1-1.51,5.17.73,7.93,7.35,9,14.46,18.26,21.52,27.53,10.78,14.17,9.76,30.77-2.69,43.38q-16,16.17-32.16,32.11c-13.08,12.89-29.66,13.87-44.22,2.68-9.24-7.1-18.46-14.22-27.6-21.45-2.18-1.73-3.9-2.15-6.65-.87-7.23,3.36-14.63,6.37-22.09,9.18-2.68,1-4.07,2.27-4.39,5.17-.95,8.92-2.06,17.83-3.24,26.73-1.11,8.37-1.64,16.86-6.91,24.14s-12.64,11-21,13.43H227a11.61,11.61,0,0,0-1.8-.82c-14.25-3.73-22.58-13-24.78-27.39-1.77-11.66-3.14-23.39-4.39-35.12-.37-3.45-1.69-5.18-5-6.37-7-2.52-14-5.33-20.75-8.5-3.11-1.46-5.19-1.47-7.95.75q-13.78,11.15-28,21.76c-14,10.47-30.63,9.29-43.07-3q-16.19-15.94-32.17-32.1c-12.91-13-13.89-29.47-2.65-44.12,7-9.11,14-18.2,21.19-27.15,2-2.51,2.39-4.41.91-7.49a224.21,224.21,0,0,1-8.75-21.16c-1.2-3.35-3-4.56-6.41-4.93-11.42-1.21-22.81-2.72-34.21-4.16-8.22-1-15.8-4-20.78-10.66-3.59-4.79-5.66-10.7-8.41-16.12ZM164.56,408c2.61,1,4.64,1.63,6.62,2.45,11.66,4.84,23.17,10.05,35,14.42,6.14,2.27,9.13,5.89,9.84,12.24,1.57,14,3.39,28.05,5.22,42.06,1.1,8.33,4.89,11.61,13.33,11.64q21.24.08,42.49,0c9,0,12.64-3.28,13.78-12.26,1.76-14,3.57-28,5.22-42.06.7-5.94,3.69-9.33,9.42-11.47,11.67-4.34,23.23-9.05,34.52-14.27,5.91-2.74,10.58-2.51,15.63,1.52,11.05,8.84,22.31,17.42,33.51,26.07,6.93,5.34,11.33,5.08,17.48-1q15.06-15,30.06-30c6.63-6.63,6.94-10.83,1.23-18.21q-13.14-17-26.4-33.86c-3.47-4.39-3.8-8.69-1.48-13.87,5.21-11.66,10.26-23.41,14.73-35.35,2.23-5.95,5.8-8.85,11.94-9.55,14.23-1.63,28.43-3.42,42.63-5.29,8-1.05,11.36-5,11.4-13q.11-21.45,0-42.91c0-8.53-3.2-12.27-11.55-13.37-14-1.86-28.07-3.68-42.13-5.25-6.34-.7-10.06-3.56-12.33-9.73-4.3-11.66-9.13-23.15-14.33-34.44-2.62-5.71-2.4-10.27,1.52-15.17,8.94-11.17,17.66-22.53,26.4-33.86,5.18-6.73,4.9-11.13-1-17.06Q422.15,91.13,406.9,76c-6.43-6.4-10.69-6.68-17.84-1.16-11.34,8.75-22.68,17.49-33.93,26.35-4.56,3.59-9,3.92-14.35,1.51-11.5-5.17-23.11-10.19-34.95-14.53-6.18-2.27-9.12-5.91-9.83-12.23-1.59-14-3.4-28.05-5.23-42.06-1.08-8.3-4.9-11.62-13.32-11.65q-21.24-.07-42.5,0c-9,0-12.66,3.25-13.79,12.23-1.76,14-3.57,28-5.22,42.06-.7,5.93-3.68,9.37-9.4,11.51-11.66,4.35-23.25,9-34.53,14.23-5.91,2.74-10.57,2.56-15.62-1.47-10.93-8.73-22-17.22-33.12-25.76-7.5-5.79-11.65-5.54-18.24,1Q90.18,90.86,75.36,105.71c-6.79,6.8-7,10.88-1,18.59,8.48,10.9,16.86,21.89,25.53,32.64,4.21,5.22,4.29,10,1.45,16.05-5.14,10.95-9.83,22.15-13.93,33.52-2.3,6.38-6,9.4-12.58,10.12-14.06,1.55-28.1,3.37-42.13,5.23-8.08,1.06-11.39,4.88-11.43,13q-.11,21.46,0,42.92c0,8.68,3.31,12.36,12,13.48,14,1.79,28.08,3.6,42.14,5.21,6.16.71,9.65,3.73,11.85,9.66,4.32,11.65,9.09,23.17,14.3,34.45,2.64,5.72,2.44,10.28-1.46,15.17-8.92,11.19-17.66,22.53-26.41,33.86-5.21,6.74-4.93,11.1,1,17q15,15,30.05,30c6.87,6.84,11,7.15,18.62,1.28,11.2-8.64,22.3-17.42,33.58-26C159.23,410.18,162.11,409.22,164.56,408Z"/><path d="M362.64,253.34c2.5,57.87-44.1,107.1-103.74,109.61-57.68,2.43-107.13-44.2-109.55-103.31-2.38-58,44.23-107.22,103.74-109.6C310.93,147.73,360.09,194.09,362.64,253.34ZM255.76,171.43a85.07,85.07,0,1,0,85.46,84.7A85,85,0,0,0,255.76,171.43Z"/></svg>