<svg id="Layer_1" data-name="Layer 1" xmlns="http://www.w3.org/2000/svg" viewBox="0 0 512 512"><path d="M511,199.21v10c-3.4,5.36-5.8,11.83-10.35,15.89Q448.23,271.83,395,317.72c-3.62,3.14-4.58,5.78-3.49,10.47q15.94,68.54,31.39,137.18c3.33,14.7-3.88,28.14-17.4,32.77-9,3.08-17.2,1.14-25.19-3.66-40-24-80.14-47.83-120.12-71.89-3.5-2.11-6-2-9.34.07q-60.21,36.16-120.57,72.08c-10.7,6.4-21.33,7-31.78-.25-9.44-6.56-12.95-17.55-10.09-30.09,10.43-45.73,20.78-91.48,31.35-137.19.91-3.95,0-6.22-3-8.83-33.73-29.32-67.27-58.86-101-88.15-6.85-6-13.11-12.09-15.76-21.06v-10c4.2-13.88,13.29-21.39,28-22.65,45.53-3.91,91-8.27,136.55-12.07,5.81-.48,8.55-2.46,10.78-7.75q26.76-63.43,54.18-126.59c2.05-4.72,5.05-9.58,8.89-12.89,14.34-12.31,35-6.38,42.87,11.92Q309.13,94.06,336.73,159c1.54,3.64,3.59,4.88,7.29,5.21q68.78,6,137.53,12.24c7.21.64,14.72,1.38,19.7,7C505.29,188,507.83,193.92,511,199.21Z"/></svg>